<?xml version="1.0" encoding="UTF-8"?>
<!--Generator: Apple Native CoreSVG 232.5-->
<!DOCTYPE svg
PUBLIC "-//W3C//DTD SVG 1.1//EN"
       "http://www.w3.org/Graphics/SVG/1.1/DTD/svg11.dtd">
<svg version="1.1" xmlns="http://www.w3.org/2000/svg" xmlns:xlink="http://www.w3.org/1999/xlink" width="25.4974" height="23.9097">
 <g>
  <rect height="23.9097" opacity="0" width="25.4974" x="0" y="0"/>
  <path d="M0 8.39511C0 13.726 4.55254 18.9687 11.5236 23.4777C11.8609 23.6972 12.2818 23.9097 12.5672 23.9097C12.8623 23.9097 13.2832 23.6972 13.6205 23.4777C20.5836 18.9687 25.1361 13.726 25.1361 8.39511C25.1361 3.87617 22.015 0.709179 17.9539 0.709179C15.601 0.709179 13.6707 1.84746 12.5672 3.56758C11.4752 1.85547 9.54315 0.709179 7.18222 0.709179C3.12109 0.709179 0 3.87617 0 8.39511ZM2.20135 8.38632C2.20135 5.10545 4.36737 2.87537 7.28925 2.87537C9.57245 2.87537 10.9146 4.26815 11.7432 5.57479C12.0519 6.03807 12.2719 6.19588 12.5672 6.19588C12.8723 6.19588 13.0629 6.03006 13.3992 5.57479C14.2703 4.28416 15.5717 2.87537 17.8469 2.87537C20.7687 2.87537 22.9348 5.10545 22.9348 8.38632C22.9348 12.9168 18.2324 17.8432 12.791 21.4654C12.6906 21.5303 12.616 21.5836 12.5672 21.5836C12.5201 21.5836 12.4455 21.5303 12.3451 21.4654C6.9037 17.8432 2.20135 12.9168 2.20135 8.38632Z" fill="#ffffff" fill-opacity="0.85"/>
 </g>
</svg>
